<svg width="156" height="130" viewBox="0 0 156 130" fill="none" xmlns="http://www.w3.org/2000/svg">
<g filter="url(#filter0_b_260_1858)">
<path d="M122.978 97.8234C105.208 115.594 76.1063 115.304 57.9785 97.1766C39.8506 79.0488 39.561 49.9473 57.3317 32.1766C75.1023 14.406 104.204 14.6955 122.332 32.8234C140.46 50.9512 140.749 80.0527 122.978 97.8234Z" fill="url(#paint0_linear_260_1858)"/>
</g>
<g filter="url(#filter1_b_260_1858)">
<path d="M63.3008 92.083C77.6586 106.441 101.194 106.11 115.867 91.4363C130.541 76.7627 130.872 53.2276 116.514 38.8698C102.156 24.5119 78.6211 24.843 63.9476 39.5166C49.274 54.1901 48.9429 77.7252 63.3008 92.083Z" stroke="url(#paint1_linear_260_1858)" stroke-width="2.44758"/>
</g>
<g filter="url(#filter2_b_260_1858)">
<path d="M89.8287 86.368C88.3761 86.368 87.1985 85.1904 87.1985 83.7378V80.8727C87.1985 79.4201 88.3761 78.2425 89.8287 78.2425V78.2425C91.2813 78.2425 92.4589 79.4201 92.4589 80.8727V83.7378C92.4589 85.1904 91.2813 86.368 89.8287 86.368V86.368ZM89.8287 50.954C88.3761 50.954 87.1985 49.7764 87.1985 48.3238V45.5057C87.1985 44.0531 88.3761 42.8755 89.8287 42.8755V42.8755C91.2813 42.8755 92.4589 44.0531 92.4589 45.5057V48.3238C92.4589 49.7764 91.2813 50.954 89.8287 50.954V50.954ZM90.1105 81.5302C86.4783 81.5302 83.5037 80.5909 81.1866 78.7122C79.7458 77.544 78.6561 76.1336 77.9175 74.4812C77.1259 72.7102 78.4061 70.838 80.2888 70.3704V70.3704C82.379 69.8512 84.3076 71.3709 85.6756 73.0343C85.8563 73.254 86.0508 73.4558 86.2591 73.6396C87.355 74.5477 88.7171 75.0017 90.3453 75.0017C91.1595 75.0017 91.8796 74.8764 92.5059 74.6259C93.1634 74.3754 93.6801 73.9997 94.0558 73.4987C94.4316 72.9977 94.6194 72.4028 94.6194 71.7139C94.6194 71.0877 94.4316 70.5397 94.0558 70.07C93.6801 69.569 93.0695 69.0994 92.2241 68.661C91.3786 68.1913 90.2514 67.6903 88.8424 67.158C86.6192 66.2813 84.8031 65.3576 83.3941 64.3869C81.985 63.3849 80.9517 62.242 80.2942 60.9582C79.6366 59.6744 79.3078 58.2028 79.3078 56.5432C79.3078 54.7271 79.7462 53.1302 80.6229 51.7525C81.531 50.3434 82.7835 49.2475 84.3804 48.4647C86.0086 47.6506 87.8873 47.2435 90.0166 47.2435C92.3023 47.2435 94.322 47.7758 96.0755 48.8404C97.0101 49.3816 97.8461 50.073 98.5832 50.9147C99.7783 52.2792 99.157 54.3093 97.607 55.2517L97.2945 55.4417C95.7621 56.3734 93.8395 55.6853 92.365 54.6645V54.6645C91.5822 54.0696 90.7211 53.7721 89.7817 53.7721C89.2181 53.7721 88.7015 53.8817 88.2318 54.1009C87.7621 54.3201 87.3864 54.6332 87.1045 55.0402C86.8227 55.416 86.6818 55.87 86.6818 56.4023C86.6818 56.9346 86.8384 57.4356 87.1515 57.9053C87.4959 58.375 88.1065 58.8603 88.9833 59.3613C89.86 59.831 91.0812 60.3633 92.6468 60.9582C94.7447 61.741 96.4669 62.6021 97.8133 63.5415C99.191 64.4808 100.224 65.5767 100.913 66.8292C101.602 68.0504 101.946 69.5221 101.946 71.2442C101.946 73.2482 101.445 75.033 100.443 76.5986C99.4728 78.1329 98.0951 79.3384 96.3103 80.2151C94.5568 81.0919 92.4902 81.5302 90.1105 81.5302Z" fill="#B9DDFF" fill-opacity="0.6"/>
</g>
<g filter="url(#filter3_b_260_1858)">
<line x1="3.62012" y1="56.6074" x2="36.3127" y2="56.6074" stroke="url(#paint2_linear_260_1858)" stroke-width="6" stroke-linecap="round"/>
</g>
<g filter="url(#filter4_b_260_1858)">
<line x1="15.1235" y1="68.1108" x2="36.3129" y2="68.1108" stroke="url(#paint3_linear_260_1858)" stroke-width="6" stroke-linecap="round"/>
</g>
<g filter="url(#filter5_b_260_1858)">
<line x1="25.5806" y1="79.6138" x2="36.3125" y2="79.6138" stroke="url(#paint4_linear_260_1858)" stroke-width="6" stroke-linecap="round"/>
</g>
<defs>
<filter id="filter0_b_260_1858" x="31.1342" y="5.97891" width="118.042" height="118.042" filterUnits="userSpaceOnUse" color-interpolation-filters="sRGB">
<feFlood flood-opacity="0" result="BackgroundImageFix"/>
<feGaussianBlur in="BackgroundImageFix" stdDeviation="6.52837"/>
<feComposite in2="SourceAlpha" operator="in" result="effect1_backgroundBlur_260_1858"/>
<feBlend mode="normal" in="SourceGraphic" in2="effect1_backgroundBlur_260_1858" result="shape"/>
</filter>
<filter id="filter1_b_260_1858" x="37.8344" y="13.4037" width="104.146" height="104.146" filterUnits="userSpaceOnUse" color-interpolation-filters="sRGB">
<feFlood flood-opacity="0" result="BackgroundImageFix"/>
<feGaussianBlur in="BackgroundImageFix" stdDeviation="6.83793"/>
<feComposite in2="SourceAlpha" operator="in" result="effect1_backgroundBlur_260_1858"/>
<feBlend mode="normal" in="SourceGraphic" in2="effect1_backgroundBlur_260_1858" result="shape"/>
</filter>
<filter id="filter2_b_260_1858" x="64.6225" y="29.8188" width="50.3806" height="69.6061" filterUnits="userSpaceOnUse" color-interpolation-filters="sRGB">
<feFlood flood-opacity="0" result="BackgroundImageFix"/>
<feGaussianBlur in="BackgroundImageFix" stdDeviation="6.52837"/>
<feComposite in2="SourceAlpha" operator="in" result="effect1_backgroundBlur_260_1858"/>
<feBlend mode="normal" in="SourceGraphic" in2="effect1_backgroundBlur_260_1858" result="shape"/>
</filter>
<filter id="filter3_b_260_1858" x="-13.0557" y="39.9316" width="66.0441" height="33.3517" filterUnits="userSpaceOnUse" color-interpolation-filters="sRGB">
<feFlood flood-opacity="0" result="BackgroundImageFix"/>
<feGaussianBlur in="BackgroundImageFix" stdDeviation="6.83793"/>
<feComposite in2="SourceAlpha" operator="in" result="effect1_backgroundBlur_260_1858"/>
<feBlend mode="normal" in="SourceGraphic" in2="effect1_backgroundBlur_260_1858" result="shape"/>
</filter>
<filter id="filter4_b_260_1858" x="-1.55232" y="51.435" width="54.5412" height="33.3517" filterUnits="userSpaceOnUse" color-interpolation-filters="sRGB">
<feFlood flood-opacity="0" result="BackgroundImageFix"/>
<feGaussianBlur in="BackgroundImageFix" stdDeviation="6.83793"/>
<feComposite in2="SourceAlpha" operator="in" result="effect1_backgroundBlur_260_1858"/>
<feBlend mode="normal" in="SourceGraphic" in2="effect1_backgroundBlur_260_1858" result="shape"/>
</filter>
<filter id="filter5_b_260_1858" x="8.90471" y="62.9379" width="44.0836" height="33.3517" filterUnits="userSpaceOnUse" color-interpolation-filters="sRGB">
<feFlood flood-opacity="0" result="BackgroundImageFix"/>
<feGaussianBlur in="BackgroundImageFix" stdDeviation="6.83793"/>
<feComposite in2="SourceAlpha" operator="in" result="effect1_backgroundBlur_260_1858"/>
<feBlend mode="normal" in="SourceGraphic" in2="effect1_backgroundBlur_260_1858" result="shape"/>
</filter>
<linearGradient id="paint0_linear_260_1858" x1="94.3676" y1="33.0138" x2="126.928" y2="100.763" gradientUnits="userSpaceOnUse">
<stop stop-color="#7FC0FB"/>
<stop offset="1" stop-color="#4088F4"/>
</linearGradient>
<linearGradient id="paint1_linear_260_1858" x1="22.892" y1="28.6088" x2="127.427" y2="88.6842" gradientUnits="userSpaceOnUse">
<stop stop-color="white"/>
<stop offset="1" stop-color="white" stop-opacity="0"/>
</linearGradient>
<linearGradient id="paint2_linear_260_1858" x1="-43.908" y1="60.4002" x2="-43.4871" y2="54.0773" gradientUnits="userSpaceOnUse">
<stop stop-color="#4088F4"/>
<stop offset="1" stop-color="#7FC0FB"/>
</linearGradient>
<linearGradient id="paint3_linear_260_1858" x1="-19.1665" y1="71.9036" x2="-18.5702" y2="65.6092" gradientUnits="userSpaceOnUse">
<stop stop-color="#4088F4"/>
<stop offset="1" stop-color="#7FC0FB"/>
</linearGradient>
<linearGradient id="paint4_linear_260_1858" x1="3.32515" y1="83.4066" x2="4.28023" y2="77.2027" gradientUnits="userSpaceOnUse">
<stop stop-color="#4088F4"/>
<stop offset="1" stop-color="#7FC0FB"/>
</linearGradient>
</defs>
</svg>
