<svg xmlns="http://www.w3.org/2000/svg" viewBox="0 0 4 2">
  <rect width="4" height="1" fill="#EF3340"/>
  <rect y="1" width="4" height="1" fill="#FFFFFF"/>
  <!-- Crescent moon -->
  <circle cx="0.7" cy="0.5" r="0.28" fill="#FFFFFF"/>
  <circle cx="0.83" cy="0.5" r="0.23" fill="#EF3340"/>
  <!-- 5 stars in pentagon arrangement -->
  <g fill="#FFFFFF" transform="translate(1.25,0.5)">
    <polygon points="0,-0.18 0.05,-0.06 0.17,-0.06 0.08,0.02 0.11,0.14 0,-0.07 -0.11,0.14 -0.08,0.02 -0.17,-0.06 -0.05,-0.06" transform="translate(0,-0.14)"/>
    <polygon points="0,-0.18 0.05,-0.06 0.17,-0.06 0.08,0.02 0.11,0.14 0,-0.07 -0.11,0.14 -0.08,0.02 -0.17,-0.06 -0.05,-0.06" transform="translate(0.13,-0.04)"/>
    <polygon points="0,-0.18 0.05,-0.06 0.17,-0.06 0.08,0.02 0.11,0.14 0,-0.07 -0.11,0.14 -0.08,0.02 -0.17,-0.06 -0.05,-0.06" transform="translate(0.08,0.13)"/>
    <polygon points="0,-0.18 0.05,-0.06 0.17,-0.06 0.08,0.02 0.11,0.14 0,-0.07 -0.11,0.14 -0.08,0.02 -0.17,-0.06 -0.05,-0.06" transform="translate(-0.08,0.13)"/>
    <polygon points="0,-0.18 0.05,-0.06 0.17,-0.06 0.08,0.02 0.11,0.14 0,-0.07 -0.11,0.14 -0.08,0.02 -0.17,-0.06 -0.05,-0.06" transform="translate(-0.13,-0.04)"/>
  </g>
</svg>
