<svg xmlns="http://www.w3.org/2000/svg" viewBox="0 0 30 20">
  <rect width="30" height="20" fill="#DE2910"/>
  <!-- Large star -->
  <polygon points="5,2 5.95,4.9 9,4.9 6.5,6.6 7.45,9.5 5,7.8 2.55,9.5 3.5,6.6 1,4.9 4.05,4.9" fill="#FFDE00"/>
  <!-- 4 small stars -->
  <polygon points="10,1 10.475,2.45 12,2.45 10.75,3.3 11.225,4.75 10,3.9 8.775,4.75 9.25,3.3 8,2.45 9.525,2.45" fill="#FFDE00"/>
  <polygon points="12,3 12.475,4.45 14,4.45 12.75,5.3 13.225,6.75 12,5.9 10.775,6.75 11.25,5.3 10,4.45 11.525,4.45" fill="#FFDE00"/>
  <polygon points="12,7 12.475,8.45 14,8.45 12.75,9.3 13.225,10.75 12,9.9 10.775,10.75 11.25,9.3 10,8.45 11.525,8.45" fill="#FFDE00"/>
  <polygon points="10,9 10.475,10.45 12,10.45 10.75,11.3 11.225,12.75 10,11.9 8.775,12.75 9.25,11.3 8,10.45 9.525,10.45" fill="#FFDE00"/>
</svg>
