<svg width="99" height="110" viewBox="0 0 99 110" fill="none" xmlns="http://www.w3.org/2000/svg">
<path d="M45.5464 77.7177C53.6901 72.3919 64.7069 61.6915 69.142 41.407C70.5223 35.0944 71.2124 31.938 69.8823 27.2231C69.5201 25.9391 68.6704 23.9222 68.0046 22.7662C65.5597 18.5209 61.8869 16.2282 54.5415 11.6429C46.5123 6.63072 42.4977 4.12464 38.089 3.62654C36.6278 3.46145 35.1527 3.46145 33.6914 3.62654C29.2828 4.12464 25.2682 6.63072 17.239 11.6429C9.89355 16.2282 6.22082 18.5209 3.77589 22.7662C3.11009 23.9222 2.26036 25.9391 1.89815 27.2231C0.56806 31.938 1.25819 35.0944 2.63845 41.407C7.07361 61.6915 18.0904 72.3919 26.2341 77.7177C28.7811 79.3835 30.0546 80.2163 35.8902 80.2163C41.7259 80.2163 42.9994 79.3834 45.5464 77.7177Z" fill="url(#paint0_linear_261_1901)"/>
<rect x="90.3579" y="100.171" width="43.8434" height="15.943" rx="7.97152" transform="rotate(-150 90.3579 100.171)" fill="url(#paint1_linear_261_1901)"/>
<g filter="url(#filter0_b_261_1901)">
<path d="M69.0357 46.1121C82.5157 53.8947 87.0075 71.3512 79.0684 85.1022C71.1292 98.8531 53.7656 103.691 40.2856 95.9087C26.8056 88.126 22.3139 70.6695 30.253 56.9186C38.1921 43.1676 55.5557 38.3294 69.0357 46.1121Z" fill="#B9DDFF" fill-opacity="0.6"/>
<path d="M68.8827 46.377C82.2115 54.0724 86.6609 71.3396 78.8034 84.9492C70.9459 98.5588 53.7673 103.339 40.4386 95.6437C27.1099 87.9484 22.6604 70.6812 30.5179 57.0716C38.3755 43.4619 55.554 38.6817 68.8827 46.377Z" stroke="url(#paint2_linear_261_1901)" stroke-width="0.611895"/>
</g>
<g filter="url(#filter1_b_261_1901)">
<path d="M75.2468 82.8957C81.6691 71.7721 77.6067 57.4643 66.2629 50.915C54.9192 44.3657 40.4971 48.0014 34.0749 59.125C27.6526 70.2487 31.715 84.5564 43.0588 91.1057C54.4025 97.655 68.8246 94.0193 75.2468 82.8957Z" stroke="url(#paint3_linear_261_1901)" stroke-width="2.44758"/>
</g>
<defs>
<filter id="filter0_b_261_1901" x="13.2733" y="29.3393" width="82.7746" height="83.3425" filterUnits="userSpaceOnUse" color-interpolation-filters="sRGB">
<feFlood flood-opacity="0" result="BackgroundImageFix"/>
<feGaussianBlur in="BackgroundImageFix" stdDeviation="6.52837"/>
<feComposite in2="SourceAlpha" operator="in" result="effect1_backgroundBlur_261_1901"/>
<feBlend mode="normal" in="SourceGraphic" in2="effect1_backgroundBlur_261_1901" result="shape"/>
</filter>
<filter id="filter1_b_261_1901" x="16.1244" y="32.7616" width="77.0729" height="76.4972" filterUnits="userSpaceOnUse" color-interpolation-filters="sRGB">
<feFlood flood-opacity="0" result="BackgroundImageFix"/>
<feGaussianBlur in="BackgroundImageFix" stdDeviation="6.83793"/>
<feComposite in2="SourceAlpha" operator="in" result="effect1_backgroundBlur_261_1901"/>
<feBlend mode="normal" in="SourceGraphic" in2="effect1_backgroundBlur_261_1901" result="shape"/>
</filter>
<linearGradient id="paint0_linear_261_1901" x1="20.9887" y1="18.0361" x2="76.6284" y2="34.3837" gradientUnits="userSpaceOnUse">
<stop stop-color="#7FC0FB"/>
<stop offset="1" stop-color="#4088F4"/>
</linearGradient>
<linearGradient id="paint1_linear_261_1901" x1="115.499" y1="108.427" x2="94.202" y2="97.5135" gradientUnits="userSpaceOnUse">
<stop stop-color="#7FC0FB"/>
<stop offset="1" stop-color="#4088F4"/>
</linearGradient>
<linearGradient id="paint2_linear_261_1901" x1="18.2621" y1="87.9359" x2="95.2923" y2="39.3824" gradientUnits="userSpaceOnUse">
<stop stop-color="white"/>
<stop offset="1" stop-color="white" stop-opacity="0"/>
</linearGradient>
<linearGradient id="paint3_linear_261_1901" x1="27.4381" y1="54.7599" x2="81.5541" y2="106.216" gradientUnits="userSpaceOnUse">
<stop stop-color="white"/>
<stop offset="1" stop-color="white" stop-opacity="0"/>
</linearGradient>
</defs>
</svg>
