<svg width="97" height="97" viewBox="0 0 97 97" fill="none" xmlns="http://www.w3.org/2000/svg">
<path d="M48.3187 62.2439C47.341 62.2439 46.5484 61.4513 46.5484 60.4735V58.5451C46.5484 57.5674 47.341 56.7748 48.3187 56.7748V56.7748C49.2964 56.7748 50.089 57.5674 50.089 58.5451V60.4735C50.089 61.4513 49.2964 62.2439 48.3187 62.2439V62.2439ZM48.3187 38.4077C47.341 38.4077 46.5484 37.615 46.5484 36.6373V34.7405C46.5484 33.7628 47.341 32.9702 48.3187 32.9702V32.9702C49.2964 32.9702 50.089 33.7628 50.089 34.7405V36.6373C50.089 37.615 49.2964 38.4077 48.3187 38.4077V38.4077ZM48.5084 58.9877C46.0636 58.9877 44.0615 58.3555 42.5019 57.0909C41.5322 56.3047 40.7987 55.3554 40.3016 54.2432C39.7688 53.0511 40.6305 51.791 41.8976 51.4763V51.4763C43.3045 51.1269 44.6026 52.1497 45.5233 53.2693C45.645 53.4172 45.7759 53.553 45.9161 53.6767C46.6538 54.2879 47.5705 54.5935 48.6664 54.5935C49.2144 54.5935 49.6991 54.5092 50.1206 54.3406C50.5632 54.172 50.911 53.9191 51.1639 53.5819C51.4168 53.2447 51.5432 52.8443 51.5432 52.3806C51.5432 51.9591 51.4168 51.5903 51.1639 51.2741C50.911 50.9369 50.5 50.6208 49.931 50.3258C49.3619 50.0096 48.6032 49.6724 47.6548 49.3141C46.1585 48.724 44.9361 48.1023 43.9877 47.449C43.0393 46.7746 42.3438 46.0053 41.9013 45.1412C41.4587 44.2771 41.2374 43.2866 41.2374 42.1696C41.2374 40.9472 41.5324 39.8724 42.1226 38.9451C42.7337 37.9967 43.5768 37.259 44.6516 36.7322C45.7475 36.1842 47.012 35.9102 48.4452 35.9102C49.9837 35.9102 51.343 36.2685 52.5232 36.9851C53.1523 37.3493 53.715 37.8147 54.2111 38.3812C55.0156 39.2996 54.5973 40.666 53.5541 41.3003L53.3437 41.4282C52.3123 42.0553 51.0183 41.5922 50.0258 40.9051V40.9051C49.4989 40.5046 48.9194 40.3044 48.2871 40.3044C47.9077 40.3044 47.56 40.3782 47.2439 40.5257C46.9277 40.6733 46.6748 40.884 46.4851 41.158C46.2955 41.4109 46.2006 41.7165 46.2006 42.0748C46.2006 42.433 46.306 42.7702 46.5168 43.0864C46.7486 43.4025 47.1596 43.7292 47.7497 44.0664C48.3398 44.3825 49.1617 44.7408 50.2155 45.1412C51.6275 45.6681 52.7867 46.2477 53.6929 46.8799C54.6202 47.5122 55.3157 48.2498 55.7794 49.0928C56.243 49.9148 56.4749 50.9053 56.4749 52.0645C56.4749 53.4133 56.1377 54.6146 55.4632 55.6684C54.8099 56.701 53.8826 57.5124 52.6813 58.1026C51.5011 58.6927 50.1101 58.9877 48.5084 58.9877Z" fill="url(#paint0_linear_261_1900)"/>
<circle cx="48.103" cy="47.7509" r="21.2275" stroke="url(#paint1_linear_261_1900)" stroke-width="4"/>
<path d="M48.103 2L48.103 17.485" stroke="url(#paint2_linear_261_1900)" stroke-width="4" stroke-linecap="round"/>
<path d="M48.103 94.2061L48.103 78.7211" stroke="url(#paint3_linear_261_1900)" stroke-width="4" stroke-linecap="round"/>
<path d="M94.2061 48.103L78.7211 48.103" stroke="url(#paint4_linear_261_1900)" stroke-width="4" stroke-linecap="round"/>
<path d="M2 48.103L17.485 48.103" stroke="url(#paint5_linear_261_1900)" stroke-width="4" stroke-linecap="round"/>
<path d="M57.2534 10.1265C71.401 13.555 82.5119 24.7554 85.8115 38.9529" stroke="url(#paint6_linear_261_1900)" stroke-width="6" stroke-linecap="round"/>
<path d="M40.0601 10.1265C25.9125 13.555 14.8015 24.7554 11.502 38.9529" stroke="url(#paint7_linear_261_1900)" stroke-width="6" stroke-linecap="round"/>
<path d="M57.2534 84.3198C71.401 80.8913 82.5119 69.6909 85.8115 55.4934" stroke="url(#paint8_linear_261_1900)" stroke-width="6" stroke-linecap="round"/>
<path d="M40.0601 84.3198C25.9125 80.8913 14.8015 69.6909 11.502 55.4934" stroke="url(#paint9_linear_261_1900)" stroke-width="6" stroke-linecap="round"/>
<defs>
<linearGradient id="paint0_linear_261_1900" x1="44.5081" y1="39.3738" x2="58.3965" y2="42.1178" gradientUnits="userSpaceOnUse">
<stop stop-color="#7FC0FB"/>
<stop offset="1" stop-color="#4088F4"/>
</linearGradient>
<linearGradient id="paint1_linear_261_1900" x1="31.151" y1="24.5234" x2="67.1073" y2="60.4797" gradientUnits="userSpaceOnUse">
<stop stop-color="#7FC0FB"/>
<stop offset="1" stop-color="#4088F4"/>
</linearGradient>
<linearGradient id="paint2_linear_261_1900" x1="48.103" y1="-5.03863" x2="48.103" y2="18.5408" gradientUnits="userSpaceOnUse">
<stop stop-color="#7FC0FB"/>
<stop offset="1" stop-color="#4088F4"/>
</linearGradient>
<linearGradient id="paint3_linear_261_1900" x1="48.103" y1="101.245" x2="48.103" y2="77.6653" gradientUnits="userSpaceOnUse">
<stop stop-color="#7FC0FB"/>
<stop offset="1" stop-color="#4088F4"/>
</linearGradient>
<linearGradient id="paint4_linear_261_1900" x1="101.245" y1="48.103" x2="77.6653" y2="48.103" gradientUnits="userSpaceOnUse">
<stop stop-color="#7FC0FB"/>
<stop offset="1" stop-color="#4088F4"/>
</linearGradient>
<linearGradient id="paint5_linear_261_1900" x1="-5.03863" y1="48.103" x2="18.5408" y2="48.103" gradientUnits="userSpaceOnUse">
<stop stop-color="#7FC0FB"/>
<stop offset="1" stop-color="#4088F4"/>
</linearGradient>
<linearGradient id="paint6_linear_261_1900" x1="19.85" y1="9.0387" x2="79.777" y2="68.9658" gradientUnits="userSpaceOnUse">
<stop stop-color="#7FC0FB"/>
<stop offset="1" stop-color="#4088F4"/>
</linearGradient>
<linearGradient id="paint7_linear_261_1900" x1="77.4635" y1="9.0387" x2="17.5364" y2="68.9658" gradientUnits="userSpaceOnUse">
<stop stop-color="#7FC0FB"/>
<stop offset="1" stop-color="#4088F4"/>
</linearGradient>
<linearGradient id="paint8_linear_261_1900" x1="19.85" y1="85.4076" x2="79.777" y2="25.4805" gradientUnits="userSpaceOnUse">
<stop stop-color="#7FC0FB"/>
<stop offset="1" stop-color="#4088F4"/>
</linearGradient>
<linearGradient id="paint9_linear_261_1900" x1="77.4635" y1="85.4076" x2="17.5364" y2="25.4805" gradientUnits="userSpaceOnUse">
<stop stop-color="#7FC0FB"/>
<stop offset="1" stop-color="#4088F4"/>
</linearGradient>
</defs>
</svg>
